<?xml version="1.0" ?><svg enable-background="new 0 0 232 189.4854" id="steam" version="1.1" viewBox="0 0 232 189.4854" xml:space="preserve" xmlns="http://www.w3.org/2000/svg" xmlns:xlink="http://www.w3.org/1999/xlink"><g><path d="M223.6729,122.9404c5.1553-5.6829,8.3271-13.1963,8.3271-21.4551c0-17.6445-14.3555-32-32-32   c-14.6426,0-26.9905,9.8982-30.7783,23.3462l-16.7896,44.772c-3.8438,0.23-7.5325,1.2839-10.8833,3.1235l-81.8804-33.5576   C57.5481,92.4834,44.9243,81.4854,30,81.4854c-16.543,0-30,13.457-30,30s13.457,30,30,30c5.9761,0,11.6465-1.8081,16.5752-5.0942   l82.3672,33.7585c0.0234,0.1353-0.0076,0.2671,0.0303,0.4021c3.1445,11.1484,13.4336,18.9336,25.0273,18.9336   c14.3359,0,26-11.6641,26-26c0-0.7019-0.0505-1.3914-0.1055-2.0793l42.7188-36.8933   C223.1206,124.0742,223.4431,123.5237,223.6729,122.9404z" fill="#1C71DA"/><path d="M200,77.4854c13.2344,0,24,10.7656,24,24s-10.7656,24-24,24s-24-10.7656-24-24   c0-2.1252,0.3047-4.1758,0.8257-6.1394l0.9204-2.4543c0.0767-0.2048,0.0576-0.4136,0.0994-0.6213   C181.4658,83.5977,190.0298,77.4854,200,77.4854z" fill="#FFFFFF"/><path d="M200,117.4854c8.8242,0,16-7.1758,16-16s-7.1758-16-16-16s-16,7.1758-16,16S191.1758,117.4854,200,117.4854   z" fill="#1C71DA"/><path d="M200,93.4854c4.4102,0,8,3.5898,8,8s-3.5898,8-8,8s-8-3.5898-8-8S195.5898,93.4854,200,93.4854z" fill="#D0E8FF"/><path d="M24.9648,118.8877c-4.0781-1.6719-6.0391-6.3555-4.3711-10.4336c1.6797-4.0781,6.3633-6.043,10.4414-4.3711   l107.6721,44.126c0.7617,0.7454,1.7317,1.1316,2.7585,1.1304l11.5654,4.7397c1.9805,0.8125,3.5234,2.3438,4.3477,4.3164   s0.832,4.1445,0.0195,6.125c-1.668,4.082-6.3359,6.0469-10.4336,4.3672L24.9648,118.8877z" fill="#5CB0FF"/><path d="M30,133.4854c-12.1289,0-22-9.8711-22-22s9.8711-22,22-22c9.1738,0,17.094,5.7007,20.3574,13.8679   l-16.291-6.6765c-8.1602-3.3398-17.5234,0.582-20.875,8.7422c-3.3398,8.1602,0.5781,17.5234,8.7383,20.8711l14.9016,6.1074   C34.6487,133.1091,32.3545,133.4854,30,133.4854z" fill="#FFFFFF"/><path d="M154,181.4854c-5.5754,0-10.6729-2.6387-14.0205-6.812l3.9541,1.6206   c1.957,0.8008,4.0117,1.1992,6.0664,1.1992c2.0938,0,4.1875-0.4141,6.1797-1.25c3.9414-1.6484,7.0039-4.7344,8.6211-8.6875   c3.3477-8.1641-0.5703-17.5273-8.7344-20.8789l-2.7766-1.1379c0.2383-0.0093,0.4707-0.0535,0.7102-0.0535c9.9258,0,18,8.0742,18,18   S163.9258,181.4854,154,181.4854z" fill="#FFFFFF"/><path d="M160.6846,138.3887l9.5071-25.3518c4.6448,11.9417,16.2327,20.4424,29.7957,20.4478l-22.3269,19.2825   C174.468,145.7498,168.2554,140.4084,160.6846,138.3887z" fill="#FFFFFF"/></g><path d="M122.1759,116c-1.0234,0-2.0479-0.3906-2.8281-1.1719c-1.5625-1.5615-1.5625-4.0947,0-5.6562  l14.1426-14.1416c1.5625-1.5625,4.0957-1.5625,5.6562,0c1.5625,1.5615,1.5625,4.0947,0,5.6562l-14.1426,14.1416  C124.2228,115.6094,123.1994,116,122.1759,116z" fill="#FF5D5D"/><path d="M136.3185,116c-1.0234,0-2.0469-0.3906-2.8281-1.1719l-14.1426-14.1416  c-1.5625-1.5615-1.5625-4.0947,0-5.6562c1.5605-1.5625,4.0938-1.5625,5.6562,0l14.1426,14.1416  c1.5625,1.5615,1.5625,4.0947,0,5.6562C138.3664,115.6094,137.3419,116,136.3185,116z" fill="#FF5D5D"/><path d="M68.1759,28c-7.7197,0-14-6.2803-14-14s6.2803-14,14-14s14,6.2803,14,14S75.8957,28,68.1759,28z M68.1759,8  c-3.3086,0-6,2.6914-6,6s2.6914,6,6,6s6-2.6914,6-6S71.4845,8,68.1759,8z" fill="#00D40B"/><path d="M173.4894,58.627c-1.0234,0-2.0479-0.3906-2.8281-1.1719l-11.3135-11.3135  c-1.5625-1.5615-1.5625-4.0947,0-5.6562l11.3135-11.3135c1.5605-1.5625,4.0957-1.5625,5.6562,0l11.3135,11.3135  c1.5625,1.5615,1.5625,4.0947,0,5.6562l-11.3135,11.3135C175.5373,58.2363,174.5128,58.627,173.4894,58.627z M167.8332,43.3135  l5.6562,5.6562l5.6562-5.6562l-5.6562-5.6562L167.8332,43.3135z" fill="#FFC504"/></svg>