<?xml version="1.0" ?><svg xmlns="http://www.w3.org/2000/svg" xmlns:xlink="http://www.w3.org/1999/xlink" version="1.1" id="design" viewBox="0 0 100 100" style="enable-background:new 0 0 100 100;" xml:space="preserve"><style type="text/css">
	.st0{fill:#E2E2E2;}
	.st1{fill:#F4F4F4;}
	.st2{fill:#FFFFFF;}
	.st3{fill:#ED8B00;}
	.st4{fill:#FBB040;}
	.st5{opacity:0.5;fill:#FFFFFF;enable-background:new    ;}
	.st6{fill:#023A68;}
	.st7{fill:#005EB8;}
	.st8{fill:#0383DB;}
	.st9{fill:#6FC4F7;}
	.st10{fill:#EDEDED;}
	.st11{fill:#E0E0E0;}
	.st12{fill:#D8D8D8;}
</style><g><title/><g><g><path class="st0" d="M41.3,46.3h15.9v8.8H41.3V46.3z"/><rect x="43" y="47.8" class="st1" width="12.5" height="3.5"/><rect x="43" y="49.1" class="st1" width="12.5" height="1.2"/><g id="Flat"><rect x="22.9" y="37.5" class="st2" width="54.2" height="43.8"/></g><rect x="30" y="65.3" class="st3" width="18.7" height="11.6"/><path class="st4" d="M48.1,75.7H30.6c-1,0-1.9,0.8-1.9,1.9l0,0l0,0v2.5c0,1,0.8,1.9,1.9,1.9h17.5c1,0,1.9-0.8,1.9-1.9l0,0v-2.5     C50,76.5,49.1,75.7,48.1,75.7z"/><path class="st4" d="M48.1,68.2H30.6c-1,0-1.9,0.8-1.9,1.9l0,0l0,0v2.5c0,1,0.8,1.9,1.9,1.9l0,0h17.5c1,0,1.9-0.8,1.9-1.9l0,0     v-2.5C50,69.1,49.1,68.2,48.1,68.2L48.1,68.2z"/><circle class="st3" cx="31.8" cy="71.3" r="0.6"/><circle class="st3" cx="34.3" cy="71.3" r="0.6"/><path class="st5" d="M46.9,72h-6.3c-0.3,0-0.6-0.3-0.6-0.7c0-0.3,0.3-0.5,0.6-0.6h6.3c0.3,0,0.6,0.3,0.6,0.7     C47.4,71.7,47.2,71.9,46.9,72z"/><path class="st4" d="M48.1,60.6H30.6c-1,0-1.9,0.8-1.9,1.9l0,0l0,0V65c0,1,0.8,1.9,1.9,1.9l0,0h17.5c1,0,1.9-0.8,1.9-1.9l0,0     v-2.5C50,61.5,49.1,60.6,48.1,60.6L48.1,60.6z"/><circle class="st3" cx="31.2" cy="63.4" r="0.6"/><circle class="st3" cx="33.7" cy="63.4" r="0.6"/><path class="st5" d="M46.9,64.4h-6.3c-0.3,0-0.6-0.3-0.6-0.6s0.3-0.6,0.6-0.6h6.3c0.3,0,0.6,0.3,0.6,0.7     C47.4,64.1,47.2,64.3,46.9,64.4L46.9,64.4z"/><circle class="st3" cx="31.8" cy="78.8" r="0.6"/><circle class="st3" cx="34.3" cy="78.8" r="0.6"/><path class="st5" d="M46.9,79.4h-6.3c-0.3,0-0.6-0.3-0.6-0.7c0-0.3,0.3-0.5,0.6-0.6h6.3c0.3,0,0.6,0.3,0.6,0.7     C47.4,79.2,47.2,79.4,46.9,79.4z"/><rect x="57.1" y="64.6" class="st6" width="19.5" height="12.1"/><path class="st7" d="M76,75.4H57.8c-1.1,0-1.9,0.9-1.9,1.9l0,0l0,0V80c0,1.1,0.9,1.9,1.9,1.9l0,0H76c1.1,0,1.9-0.9,1.9-1.9l0,0     l0,0v-2.6C77.9,76.3,77.1,75.4,76,75.4L76,75.4L76,75.4z"/><path class="st7" d="M76,67.7H57.8c-1.1,0-1.9,0.9-1.9,1.9l0,0l0,0v2.6c0,1.1,0.9,1.9,1.9,1.9l0,0H76c1.1,0,1.9-0.9,1.9-1.9l0,0     l0,0v-2.6C77.9,68.5,77.1,67.7,76,67.7L76,67.7L76,67.7z"/><circle class="st3" cx="57" cy="72.9" r="0.5"/><circle class="st6" cx="59.1" cy="70.9" r="0.5"/><path class="st8" d="M74.7,71.5h-6.6c-0.4,0-0.6-0.3-0.6-0.6c0-0.4,0.3-0.6,0.6-0.6h6.5c0.4,0,0.6,0.3,0.6,0.6     C75.3,71.3,75,71.5,74.7,71.5L74.7,71.5z"/><path class="st7" d="M76,59.7H57.8c-1.1,0-1.9,0.9-1.9,1.9l0,0l0,0v2.6c0,1.1,0.9,1.9,1.9,1.9l0,0H76c1.1,0,1.9-0.9,1.9-1.9l0,0     l0,0v-2.6C77.9,60.6,77.1,59.7,76,59.7L76,59.7L76,59.7z"/><circle class="st6" cx="57" cy="63" r="0.5"/><circle class="st6" cx="59.1" cy="63" r="0.5"/><path class="st8" d="M74.7,63.6h-6.6c-0.4,0-0.6-0.3-0.6-0.6c0-0.4,0.3-0.6,0.6-0.6h6.5c0.4,0,0.6,0.3,0.6,0.6     C75.3,63.3,75,63.6,74.7,63.6L74.7,63.6z"/><circle class="st3" cx="57" cy="79.3" r="0.5"/><circle class="st6" cx="59.1" cy="79.3" r="0.5"/><path class="st8" d="M74.7,79.3h-6.6c-0.4,0-0.6-0.3-0.6-0.6c0-0.4,0.3-0.6,0.6-0.6h6.5c0.4,0,0.6,0.3,0.6,0.6     C75.3,79,75,79.3,74.7,79.3L74.7,79.3z"/><path class="st7" d="M58.3,70.2H45v8.2h13.3V70.2z"/><path class="st8" d="M57.9,77.5H45.5c-0.7,0-1.3,0.6-1.3,1.3c0,0,0,0,0,0l0,0v1.8c0,0.7,0.6,1.3,1.3,1.3c0,0,0,0,0,0h12.4     c0.7,0,1.3-0.6,1.3-1.3c0,0,0,0,0,0l0,0v-1.8C59.2,78.1,58.6,77.5,57.9,77.5L57.9,77.5L57.9,77.5z"/><path class="st8" d="M57.9,72.2H45.5c-0.7,0-1.3,0.6-1.3,1.3c0,0,0,0,0,0l0,0v1.8c0,0.7,0.6,1.3,1.3,1.3c0,0,0,0,0,0h12.4     c0.7,0,1.3-0.6,1.3-1.3c0,0,0,0,0,0l0,0v-1.8C59.2,72.8,58.6,72.2,57.9,72.2C57.9,72.2,57.9,72.2,57.9,72.2z"/><circle class="st7" cx="46.4" cy="74.4" r="0.4"/><circle class="st7" cx="48.2" cy="74.4" r="0.4"/><path class="st9" d="M57,74.9h-4.4c-0.2,0-0.4-0.2-0.4-0.4s0.2-0.4,0.4-0.4H57c0.2,0,0.4,0.2,0.4,0.4S57.2,74.9,57,74.9L57,74.9z     "/><path class="st8" d="M57.9,66.8H45.5c-0.7,0-1.3,0.6-1.3,1.3c0,0,0,0,0,0l0,0v1.8c0,0.7,0.6,1.3,1.3,1.3h12.4     c0.7,0,1.3-0.6,1.3-1.3c0,0,0,0,0,0l0,0v-1.8C59.2,67.4,58.6,66.9,57.9,66.8L57.9,66.8z"/><circle class="st7" cx="46.4" cy="69" r="0.4"/><circle class="st7" cx="48.2" cy="69" r="0.4"/><path class="st9" d="M57,69.5h-4.4c-0.2,0-0.4-0.2-0.4-0.4s0.2-0.4,0.4-0.4H57c0.2,0,0.4,0.2,0.4,0.4S57.2,69.5,57,69.5L57,69.5z     "/><circle class="st7" cx="46.4" cy="79.7" r="0.4"/><circle class="st7" cx="48.2" cy="79.7" r="0.4"/><path class="st9" d="M57,80.2h-4.4c-0.2,0-0.4-0.2-0.4-0.4s0.2-0.4,0.4-0.4H57c0.2,0,0.4,0.2,0.4,0.4S57.2,80.2,57,80.2L57,80.2z     "/><polygon class="st10" points="50,26.6 18.3,37.5 18.3,81.9 28,81.9 28,51 72,51 72,81.9 81.7,81.9 81.7,37.5    "/><path class="st11" d="M81.7,37.5v5.3L50,31.6L18.3,42.8v-5.3L50,30.2L81.7,37.5z"/><path class="st12" d="M85.4,36L50,23.9L14.6,36v4.9L50,28.8l35.4,12.1L85.4,36z"/></g><g><circle class="st4" cx="50" cy="33.6" r="15.5"/><g><rect x="42.1" y="28.9" class="st2" width="4.2" height="13.8"/><polygon class="st2" points="49.5,31.9 39,31.9 44.2,24.4     "/></g><g><rect x="53.6" y="24.4" transform="matrix(-1 -1.224647e-16 1.224647e-16 -1 111.3287 62.6719)" class="st2" width="4.2" height="13.8"/><polygon class="st2" points="50.4,35.3 60.9,35.3 55.7,42.7     "/></g></g></g></g></svg>