<?xml version="1.0" ?><svg xmlns="http://www.w3.org/2000/svg" xmlns:xlink="http://www.w3.org/1999/xlink" version="1.1" viewBox="0 0 512 512" style="enable-background:new 0 0 512 512;" xml:space="preserve"><g id="_x33_8_Calendar_x2C__Time_and_Date_x2C__Springtime_x2C__Season_x2C__Schedule"><g><polygon style="fill:#FF6378;" points="11,51 11,141 231,153.4 501,141 501,51   "/><rect x="11" y="141" style="fill:#ECE6F2;" width="490" height="360"/><path style="fill:#F4D944;" d="M331,296c15.28,0,27.36,13.71,24.61,29.49c-2.16,12.39-13.5,21.19-26.05,20.47    c-0.07,0-0.14-0.01-0.19-0.01c-3.534-0.234-6.515,6.543-2.7,10.38l0.04,0.03c9.77,9.76,9.77,25.59,0,35.35    c-9.76,9.77-25.59,9.77-35.35,0l-0.03-0.03c-2.832-2.857-9.085-3.01-10.33,4.32c0,14.85-12.94,26.67-28.15,24.81    c-12.052-1.474-21.85-11.883-21.85-25.03c-1.202-6.834-7.324-7.106-10.32-4.11l-0.04,0.04c-9.76,9.77-25.59,9.77-35.35,0    c-9.77-9.76-9.77-25.59,0-35.35l0.04-0.03c3.684-3.684,1.391-10.33-4.22-10.33H181c-15.28,0-27.36-13.71-24.61-29.49    c2.05-11.746,12.603-21.042,26.05-20.47c4.247,0,6.428-6.822,2.85-10.4c-9.767-9.767-9.78-25.57,0-35.35    c9.76-9.76,25.59-9.76,35.35,0c0.01,0.01,0.02,0.02,0.03,0.04c3.594,3.594,8.284,2.584,10.33-4.33c0-15.28,13.7-27.36,29.49-24.61    c12.39,2.16,21.18,13.5,20.47,26.05c0,0.07-0.01,0.14-0.01,0.19c-0.236,3.563,6.56,6.498,10.38,2.7l0.03-0.04    c9.76-9.76,25.59-9.76,35.35,0c9.749,9.749,9.787,25.574,0,35.35c-4.061,6.169-0.026,10.36,4.18,10.36H331z"/><circle style="fill:#ECB43E;" cx="256" cy="321" r="25"/><path style="fill:#4E5F7E;" d="M441,81h-50c0-14.245,0-55.725,0-70h50C441,25.275,441,66.755,441,81z"/><path style="fill:#4E5F7E;" d="M121,81H71c0-14.245,0-55.725,0-70h50C121,25.275,121,66.755,121,81z"/><g><path d="M501,41h-50V11c0-5.522-4.478-10-10-10h-50c-5.522,0-10,4.478-10,10v30H131V11c0-5.522-4.477-10-10-10H71     c-5.523,0-10,4.478-10,10v30H11C5.477,41,1,45.478,1,51v450c0,5.522,4.477,10,10,10h490c5.522,0,10-4.478,10-10V51     C511,45.478,506.522,41,501,41z M401,21h30v50h-30V21z M81,21h30v50H81V21z M61,61v20c0,5.522,4.477,10,10,10h50     c5.523,0,10-4.478,10-10V61h250v20c0,5.522,4.478,10,10,10h50c5.522,0,10-4.478,10-10V61h40v70H21V61H61z M21,491V151h470v340H21     z"/><path d="M256,286.001c-19.299,0-35,15.701-35,35s15.701,35,35,35s35-15.701,35-35S275.299,286.001,256,286.001z M256,336.001     c-8.271,0-15-6.729-15-15s6.729-15,15-15c8.271,0,15,6.729,15,15S264.271,336.001,256,336.001z"/><path d="M338.516,286.813c7.244-11.377,7.435-26.323-0.15-37.945c-10.64-16.339-32.291-20.6-48.175-10.408     c-2.965-13.565-13.797-24.448-27.983-26.919c-18.934-3.301-36.431,8.899-40.391,26.923     c-15.822-10.157-37.495-6.005-48.182,10.404c-7.584,11.62-7.396,26.563-0.157,37.937c-13.653,2.961-24.471,13.826-26.938,27.987     c-3.304,18.964,8.928,36.439,26.924,40.393c-8.554,13.323-7.256,31.593,4.753,43.593c11.965,11.974,30.216,13.349,43.598,4.755     c3.124,14.225,14.896,25.375,29.819,27.2c18.077,2.213,34.664-9.617,38.544-27.199c13.297,8.542,31.578,7.28,43.598-4.75     c11.951-11.941,13.365-30.186,4.761-43.591c13.566-2.964,24.452-13.797,26.923-27.983     C368.764,308.245,356.53,290.76,338.516,286.813z M345.757,323.776c-1.181,6.781-7.379,12.519-15.855,12.188     c-12.686-1.057-20.544,17.18-10.262,27.469c5.829,5.823,5.896,15.311-0.006,21.207c-5.845,5.851-15.329,5.878-21.214-0.013     c-9.952-10.016-27.42-3.223-27.42,11.264v0.109c0,8.756-7.593,16.019-16.937,14.88c-7.341-0.898-13.08-7.456-13.064-14.855     L241,395.87c0.213-14.057-17.134-21.526-27.432-11.229c-5.823,5.828-15.31,5.897-21.208-0.006     c-5.853-5.848-5.875-15.332,0.013-21.214c9.968-9.901,3.323-27.42-11.263-27.42H181c-9.008,0-16.455-8.03-14.757-17.776     c1.214-6.972,7.706-12.605,15.686-12.196c13.282,0.718,20.478-17.413,10.43-27.46c-4.989-4.985-5.821-12.879-1.971-18.777     c5.197-7.988,16.404-9.16,23.137-2.474c10.048,10.281,27.525,3.195,27.475-11.316c0-9.016,8.026-16.448,17.775-14.757     c7.591,1.322,12.711,8.544,12.187,15.89c-0.715,13.115,17.428,20.266,27.433,10.266c6.875-6.875,18.084-5.51,23.214,2.388     c0.003,0.004,0.006,0.008,0.009,0.013c3.845,5.891,3.013,13.783-1.99,18.781c-10.016,9.952-3.223,27.42,11.264,27.42H331     C340.008,306.001,347.454,314.028,345.757,323.776z"/></g></g></g><g id="Layer_1"/></svg>