<?xml version="1.0" ?><svg xmlns="http://www.w3.org/2000/svg" xmlns:xlink="http://www.w3.org/1999/xlink" version="1.1" viewBox="0 0 512 512" style="enable-background:new 0 0 512 512;" xml:space="preserve"><g id="_x33_4_Partnership"><g><linearGradient id="SVGID_1_" gradientUnits="userSpaceOnUse" x1="284.9663" y1="-205.8513" x2="226.5783" y2="880.1656"><stop offset="0" style="stop-color:#EAE9FE"/><stop offset="0.4236" style="stop-color:#EEEEFE"/><stop offset="0.8967" style="stop-color:#FBFBFF"/><stop offset="1" style="stop-color:#FFFFFF"/></linearGradient><path style="fill:url(#SVGID_1_);" d="M468.836,264.275c-9.502-7.393-20.977-13.763-25.396-24.961    c-6.009-15.229,3.597-31.571,9.261-46.931c17.296-46.9-4.903-102.439-44.732-132.645    c-75.982-57.623-224.302-37.425-245.028,42.219c-8.768,33.692,6.94,72.131-9.131,103.013    c-20.278,38.966-74.073,41.594-108.719,58.921C2.169,285.358-6.419,332.1,24.365,367.686    c11.304,13.068,25.769,22.07,36.136,36.348c15.001,20.659,23.415,43.504,43.486,60.545c28.263,23.996,75.517,29.946,100.538,2.586    c14.09-15.407,18.675-38.106,34.054-52.225c20.245-18.586,52.242-16.086,78.004-6.514c25.762,9.571,49.655,25.026,76.789,29.381    c42.426,6.81,87.917-18.085,105.053-57.489C515.561,340.912,502.748,290.664,468.836,264.275z"/><g><path style="fill:#2769FD;" d="M227.581,126.916v63.977c0,4.967,4.063,9.03,9.03,9.03h56.934l21.672,18.15     c1.445,1.219,3.703,0.181,3.703-1.715v-16.435h5.734c4.966,0,9.03-4.063,9.03-9.03v-63.977c0-4.967-4.064-9.03-9.03-9.03h-88.043     C231.644,117.886,227.581,121.949,227.581,126.916z"/><path style="fill:#EDEDED;" d="M257.888,159.431c0,4.844-3.942,8.719-8.717,8.719c-4.842,0-8.717-3.875-8.717-8.719     c0-4.773,3.875-8.715,8.717-8.715C253.946,150.716,257.888,154.658,257.888,159.431z"/><path style="fill:#EDEDED;" d="M289.349,159.431c0,4.844-3.942,8.719-8.717,8.719c-4.842,0-8.717-3.875-8.717-8.719     c0-4.773,3.875-8.715,8.717-8.715C285.407,150.716,289.349,154.658,289.349,159.431z"/><path style="fill:#EDEDED;" d="M320.81,159.431c0,4.844-3.942,8.719-8.717,8.719c-4.842,0-8.717-3.875-8.717-8.719     c0-4.773,3.875-8.715,8.717-8.715C316.868,150.716,320.81,154.658,320.81,159.431z"/><path style="fill:#F9BB40;" d="M228.436,405.038l38.115,32.421c3.428,2.902,7.601,4.34,11.775,4.34     c5.169,0,10.281-2.184,13.875-6.413c6.08-7.103,5.666-17.551-0.58-24.212l6.689,5.666c3.427,2.902,7.601,4.34,11.774,4.34     c5.169,0,10.283-2.184,13.875-6.413c6.524-7.656,5.583-19.099-2.045-25.622l3.703,3.151c3.428,2.902,7.601,4.339,11.775,4.339     c5.141,0,10.254-2.184,13.874-6.412c6.496-7.656,5.585-19.126-2.073-25.65l-7.435-6.33c3.428,2.93,7.601,4.34,11.775,4.34     c5.169,0,10.281-2.157,13.875-6.385c6.496-7.656,5.583-19.155-2.073-25.649l-38.115-32.423l-72.49-60.374     c0,0-25.055-9.142-52.004,1.914l-46.982-6.389l-49.16,82.536L228.436,405.038z"/><path style="fill:#D8901D;" d="M160.323,356.518l-13.187,10.505c-7.072,5.706-17.43,4.599-23.136-2.472h0     c-5.706-7.071-4.599-17.428,2.473-23.134l13.187-10.505c7.072-5.706,17.43-4.599,23.136,2.472l0,0     C168.502,340.455,167.395,350.812,160.323,356.518z"/><path style="fill:#D8901D;" d="M194.398,370.672l-26.204,21.178c-7.072,5.706-17.43,4.599-23.136-2.472l0,0     c-5.706-7.071-4.599-17.428,2.473-23.134l26.204-21.178c7.072-5.706,17.43-4.599,23.136,2.472l0,0     C202.577,354.609,201.47,364.966,194.398,370.672z"/><path style="fill:#D8901D;" d="M215.406,395.697l-18.95,15.16c-7.072,5.706-17.43,4.599-23.136-2.472l0,0     c-5.706-7.071-4.599-17.428,2.473-23.134l18.95-15.16c7.072-5.706,17.43-4.599,23.136,2.472h0     C223.585,379.634,222.478,389.991,215.406,395.697z"/><path style="fill:#D8901D;" d="M238.932,419.052l-13.187,10.505c-7.072,5.706-17.43,4.599-23.136-2.472l0,0     c-5.706-7.071-4.599-17.428,2.473-23.134l13.187-10.505c7.072-5.706,17.43-4.599,23.136,2.472l0,0     C247.11,402.989,246.003,413.347,238.932,419.052z"/><path style="fill:#D8901D;" d="M416.465,295.736l-51.129,34.814l-79.568-66.999l-14.684,7.353     c-6.523,3.178-13.516,4.698-20.398,4.698c-8.188,0-16.274-2.153-23.4-6.258c-7.466-4.301-7.193-15.203,0.4-19.277l35.854-19.239     c4.398-2.36,9.538-2.929,14.346-1.588l51.464,5.636l32.255-19.002L416.465,295.736z"/><path style="fill:#386E93;" d="M387.041,198.549l53.757,78.461c3.737,5.455,2.345,12.907-3.11,16.644l-24.139,16.539     c-5.455,3.737-12.907,2.345-16.644-3.11l-53.757-78.461c-3.737-5.455-2.345-12.907,3.11-16.644l24.139-16.539     C375.852,191.702,383.304,193.094,387.041,198.549z"/><path style="fill:#FF5859;" d="M124.959,209.375l-53.757,78.461c-3.737,5.455-2.345,12.907,3.11,16.644l24.139,16.539     c5.455,3.737,12.907,2.345,16.644-3.11l53.757-78.461c3.737-5.455,2.345-12.907-3.11-16.644l-24.139-16.539     C136.149,202.528,128.697,203.92,124.959,209.375z"/><path style="fill:#5EDB6B;" d="M261.44,79.231v63.977c0,4.967-4.063,9.03-9.03,9.03h-56.934l-21.672,18.15     c-1.445,1.219-3.703,0.181-3.703-1.715v-16.435h-5.734c-4.966,0-9.03-4.063-9.03-9.03V79.231c0-4.967,4.064-9.03,9.03-9.03     h88.043C257.377,70.201,261.44,74.265,261.44,79.231z"/><path style="fill:#332E8E;" d="M236.611,203.767h55.571l20.615,17.263c1.107,0.935,2.461,1.418,3.839,1.418     c0.861,0,1.731-0.188,2.557-0.571c2.144-0.996,3.475-3.074,3.475-5.425v-12.686h1.984c7.047,0,12.781-5.732,12.781-12.781     v-63.977c0-7.048-5.734-12.781-12.781-12.781H265.19V79.23c0-7.046-5.734-12.778-12.781-12.778h-88.042     c-7.047,0-12.781,5.732-12.781,12.778v63.979c0,7.046,5.734,12.778,12.781,12.778h1.984v12.686c0,2.349,1.331,4.429,3.473,5.425     c0.828,0.383,1.7,0.574,2.562,0.574c1.376,0,2.725-0.481,3.826-1.406l20.627-17.278h26.991v34.998     C223.83,198.034,229.564,203.767,236.611,203.767z M265.19,143.21v-21.482h59.463c2.911,0,5.281,2.368,5.281,5.281v63.977     c0,2.913-2.369,5.281-5.281,5.281h-5.734c-2.072,0-3.75,1.68-3.75,3.75v13.218l-19.218-16.094     c-0.675-0.564-1.527-0.874-2.407-0.874h-56.934c-2.911,0-5.281-2.368-5.281-5.281v-34.998h5.906     c-0.329,1.094-0.532,2.241-0.532,3.442c0,6.875,5.592,12.468,12.466,12.468c6.874,0,12.467-5.593,12.467-12.468     c0-2.044-0.542-3.945-1.417-5.649v0.314h-1.21C262.698,151.852,265.19,147.833,265.19,143.21z M254.138,159.431     c0,2.739-2.228,4.968-4.967,4.968c-2.784,0-4.966-2.183-4.966-4.968c0-1.338,0.538-2.549,1.402-3.442h6.802     c0.093,0,0.179-0.025,0.272-0.027C253.576,156.864,254.138,158.095,254.138,159.431z M195.476,148.488     c-0.88,0-1.733,0.31-2.408,0.874l-19.216,16.096v-13.22c0-2.07-1.678-3.75-3.75-3.75h-5.734c-2.911,0-5.281-2.368-5.281-5.278     V79.23c0-2.91,2.369-5.278,5.281-5.278h88.042c2.911,0,5.281,2.368,5.281,5.278v63.979c0,2.91-2.369,5.278-5.281,5.278H195.476z"/><path style="fill:#332E8E;" d="M280.632,171.899c6.874,0,12.467-5.593,12.467-12.468c0-6.873-5.593-12.463-12.467-12.463     s-12.467,5.591-12.467,12.463C268.165,166.306,273.758,171.899,280.632,171.899z M280.632,154.467     c2.693,0,4.967,2.273,4.967,4.963c0,2.739-2.228,4.968-4.967,4.968c-2.786,0-4.967-2.183-4.967-4.968     C275.665,156.694,277.893,154.467,280.632,154.467z"/><path style="fill:#332E8E;" d="M312.093,171.899c6.874,0,12.467-5.593,12.467-12.468c0-6.873-5.593-12.463-12.467-12.463     s-12.467,5.591-12.467,12.463C299.626,166.306,305.219,171.899,312.093,171.899z M312.093,154.467     c2.693,0,4.967,2.273,4.967,4.963c0,2.739-2.228,4.968-4.967,4.968c-2.786,0-4.967-2.183-4.967-4.968     C307.126,156.694,309.354,154.467,312.093,154.467z"/><path style="fill:#332E8E;" d="M390.134,196.43c-4.9-7.153-14.706-8.987-21.858-4.084l-24.137,16.541     c-5.546,3.795-7.896,10.484-6.384,16.685l-9.236,5.442l-49.934-5.471c-5.679-1.499-11.638-0.801-16.818,1.982l-10.105,5.422     c-8.467-2.164-28.179-5.505-49.415,2.872l-27.578-3.75c-0.216-5.261-2.864-9.654-6.81-12.356l-24.138-16.541     c-7.156-4.905-16.958-3.069-21.857,4.084l-53.757,78.462c-4.9,7.151-3.069,16.956,4.083,21.855l24.139,16.538     c4.761,3.263,11.035,3.722,16.377,0.835l14.811,10.845l-3.401,2.71c-8.689,7.007-10.049,19.716-3.037,28.406     c4.117,5.1,10.451,7.915,17.147,7.452c-1.51,6.379,0.083,12.631,3.911,17.374c5.779,7.159,15.572,9.418,23.81,5.822     c-0.118,4.624,1.327,9.312,4.453,13.186c5.968,7.395,16.314,9.642,24.837,5.324c-0.173,4.854,1.369,9.557,4.45,13.375     c6.994,8.663,19.734,10.035,28.391,3.049l13.187-10.505c0.006-0.005,0.012-0.01,0.018-0.015c0.217-0.175,0.409-0.37,0.618-0.552     l22.225,18.907c9.349,7.91,23.148,6.646,30.922-2.5c3.746-4.377,5.481-9.836,5.232-15.22c9.016,4.514,19.967,2.32,26.53-5.405     c4.288-5.032,5.896-11.47,4.963-17.551c8.104,2.16,16.786-0.5,22.351-6.997c6.476-7.634,6.819-18.467,1.516-26.416     c5.673-0.54,10.916-3.247,14.624-7.61c6.764-7.973,6.892-19.384,0.789-27.433l26.582-18.099     c5.341,3.828,12.514,3.974,18.03,0.193l24.141-16.538c7.15-4.9,8.982-14.707,4.082-21.858L390.134,196.43z M265.313,234.13     c3.561-1.909,7.667-2.373,11.565-1.279c0.197,0.054,0.397,0.093,0.599,0.115l51.464,5.637c0.802,0.088,1.615-0.085,2.311-0.498     l9.865-5.812l51.49,75.15l-27.02,18.398l-14.236-12.109c-0.03,0.022-0.064,0.039-0.094,0.061l-63.075-53.11     c-0.691-0.581-1.55-0.881-2.417-0.881c-0.571,0-1.145,0.129-1.677,0.398l-14.648,7.332c-5.796,2.825-12.281,4.319-18.754,4.319     c-7.545,0-14.989-1.99-21.53-5.757c-2.275-1.311-3.611-3.679-3.571-6.335c0.042-2.72,1.489-5.11,3.872-6.389L265.313,234.13z      M100.57,317.924l-24.138-16.538c-3.747-2.569-4.707-7.679-2.136-11.431l53.757-78.462c2.565-3.735,7.69-4.692,11.432-2.136     l24.138,16.541c3.747,2.57,4.706,7.681,2.136,11.431l-53.757,78.462C109.437,319.528,104.311,320.485,100.57,317.924z      M126.919,362.194c-4.416-5.468-3.539-13.461,1.891-17.844l13.206-10.52c5.448-4.396,13.463-3.541,17.863,1.907     c3.683,4.566,3.635,10.904,0.335,15.435c-15.004,12.212-15.125,12.039-16.922,13.906     C137.948,368.268,130.936,367.176,126.919,362.194z M165.84,388.933c-5.452,4.392-13.463,3.545-17.863-1.912     c-3.887-4.813-3.647-11.491,0.052-16.003c0.251-0.169,14.796-11.028,17.721-14.678l10.34-8.357     c5.464-4.403,13.455-3.555,17.863,1.912c4.182,5.178,3.762,12.98-1.552,17.268C172.714,383.086,184.252,373.34,165.84,388.933z      M176.239,406.032c-3.774-4.678-3.653-11.228-0.114-15.77c21.914-17.762,20.831-16.73,22.18-18.066     c5.7-3.605,12.753-2.116,16.655,2.723c4.405,5.455,3.558,13.449-1.906,17.856c-0.255,0.204-19.21,15.369-18.954,15.164     C188.652,412.336,180.638,411.479,176.239,406.032z M236.585,416.127L223.39,426.64c-5.45,4.397-13.464,3.542-17.863-1.912     c-2.131-2.639-3.105-5.95-2.745-9.324c0.888-8.285,7.504-9.768,17.842-19.041c5.438-4.388,13.455-3.551,17.863,1.907     C242.882,403.72,242.029,411.728,236.585,416.127z M364.551,353.769c-5.046,5.94-14.161,6.873-20.304,1.667l-0.057-0.049     c-1.573-1.34-3.94-1.152-5.283,0.422c-1.344,1.575-1.157,3.94,0.416,5.286c0.023,0.02,0.048,0.039,0.071,0.059l7.367,6.272     c6.058,5.164,6.797,14.302,1.659,20.359c-5.203,6.077-14.247,6.838-20.371,1.655l-3.704-3.152     c-1.573-1.34-3.94-1.152-5.283,0.422s-1.157,3.938,0.415,5.283c6.049,5.173,6.779,14.297,1.625,20.344     c-5.104,6.01-14.178,6.882-20.367,1.641l-6.688-5.667c-1.515-1.284-3.771-1.165-5.142,0.278c-1.37,1.44-1.378,3.699-0.018,5.149     c5.04,5.374,5.24,13.63,0.459,19.216c-5.167,6.085-14.255,6.816-20.364,1.648l-22.443-19.091     c7.679-14.922-5.069-32.134-21.584-29.132c1.042-5.988-0.558-11.716-4.156-16.174c-4.304-5.332-10.785-7.888-17.15-7.447     c1.595-6.436,0.019-12.773-3.858-17.575c-6.989-8.665-19.686-10.076-28.412-3.037l-1.223,0.989     c-0.117-4.27-1.558-8.535-4.441-12.109c-6.995-8.667-19.741-10.024-28.39-3.047l-3.725,2.967l-15.244-11.162     c56.707-82.918,53.691-78.029,54.803-80.354l29.063,3.952c0.652,0.081,1.318,0.002,1.929-0.247     c14.024-5.751,27.601-5.704,36.941-4.519l-15.178,8.144c-4.817,2.585-7.743,7.4-7.825,12.883     c-0.082,5.417,2.657,10.256,7.327,12.947c7.677,4.421,16.416,6.758,25.272,6.758c7.605,0,15.226-1.755,22.075-5.095l12.478-6.245     l77.678,65.406C368.921,338.518,369.762,347.629,364.551,353.769z M435.57,290.561l-24.139,16.538     c-3.753,2.573-8.866,1.608-11.432-2.136l-53.757-78.459c-2.567-3.745-1.615-8.864,2.136-11.431l24.138-16.541     c3.706-2.541,8.848-1.633,11.432,2.136l53.757,78.459C440.267,282.868,439.309,287.998,435.57,290.561z"/><path style="fill:#332E8E;" d="M210.289,94.759c0.003,0,0.006,0.001,0.009,0.001c0.013,0,0.025-0.004,0.039-0.004     c3.57,0.005,6.474,2.942,6.474,6.549c0,2.07,1.678,3.75,3.75,3.75s3.75-1.68,3.75-3.75c0-6.451-4.355-11.887-10.262-13.53v-1.424     c0-2.07-1.678-3.75-3.75-3.75c-2.072,0-3.75,1.68-3.75,3.75v1.434c-5.915,1.656-10.271,7.083-10.271,13.519     c0,7.624,6.165,13.833,13.794,13.971c0.077,0.005,0.149,0.023,0.227,0.023c0.022,0,0.041-0.006,0.063-0.006     c3.559,0.019,6.45,2.948,6.45,6.547c0,3.577-2.909,6.484-6.483,6.484c-3.612,0-6.55-2.908-6.55-6.484     c0-2.07-1.678-3.75-3.75-3.75s-3.75,1.68-3.75,3.75c0,6.406,4.356,11.807,10.271,13.456v0.702c0,2.07,1.678,3.75,3.75,3.75     c2.072,0,3.75-1.68,3.75-3.75v-0.692c5.907-1.635,10.262-7.046,10.262-13.466c0-7.747-6.273-14.05-13.983-14.05     c-3.612,0-6.55-2.908-6.55-6.484C203.778,97.708,206.695,94.781,210.289,94.759z"/></g></g></g><g id="Layer_1"/></svg>